PathFileType	4	(X/Y/Z)	C:/Users/opensim2020/Desktop/walking_exp_matlab/subject03_walking07_straight_03.trc	
DataRate	CameraRate	NumFrames	NumMarkers	Units	OrigDataRate	OrigDataStartFrame	OrigNumFrames	
100.00	100.00	4	46	mm	100.00	2241	306	
Frame#	Time	LFHD			RFHD			LBHD			RBHD			C7			T10			CLAV			STRN			RBAK			LSHO			LUPA			LELB			LFRM			LWRA			LWRB			LFIN			RSHO			RUPA			RELB			RFRM			RWRA			RWRB			RFIN			LASI			RASI			LPSI			RPSI			LTHI			LKNE			LTIB			LANK			LHEE			LTOE			RTHI			RKNE			RTIB			RANK			RHEE			RTOE			*39			*40			*41			*42			*43			*44			*45			
		X1	Y1	Z1	X2	Y2	Z2	X3	Y3	Z3	X4	Y4	Z4	X5	Y5	Z5	X6	Y6	Z6	X7	Y7	Z7	X8	Y8	Z8	X9	Y9	Z9	X10	Y10	Z10	X11	Y11	Z11	X12	Y12	Z12	X13	Y13	Z13	X14	Y14	Z14	X15	Y15	Z15	X16	Y16	Z16	X17	Y17	Z17	X18	Y18	Z18	X19	Y19	Z19	X20	Y20	Z20	X21	Y21	Z21	X22	Y22	Z22	X23	Y23	Z23	X24	Y24	Z24	X25	Y25	Z25	X26	Y26	Z26	X27	Y27	Z27	X28	Y28	Z28	X29	Y29	Z29	X30	Y30	Z30	X31	Y31	Z31	X32	Y32	Z32	X33	Y33	Z33	X34	Y34	Z34	X35	Y35	Z35	X36	Y36	Z36	X37	Y37	Z37	X38	Y38	Z38	X39	Y39	Z39	X40	Y40	Z40	X41	Y41	Z41	X42	Y42	Z42	X43	Y43	Z43	X44	Y44	Z44	X45	Y45	Z45	X46	Y46	Z46	

77	0.760	1346.79260	-617.41638	1609.53052	1479.87744	-626.07709	1609.73523	1342.20227	-740.36096	1551.67151	1473.35889	-743.66699	1552.19543	1391.35815	-763.68903	1402.89795	1393.81921	-816.95642	1094.24597	1399.61987	-645.66034	1320.63965	1392.71387	-610.70135	1153.39319	1480.23718	-829.53925	1229.94275	1244.00415	-673.70459	1362.04639	1165.64526	-638.91791	1177.70825	1152.28589	-591.17572	1066.41821	1167.44910	-501.01910	977.22375	1214.12415	-420.86337	899.00208	1162.44543	-435.21756	884.37695	1181.21497	-369.42172	838.00128	1556.27441	-701.56836	1344.17749	1628.61060	-720.10992	1123.54407	1643.94482	-713.06958	1011.00140	1647.70557	-701.09869	874.27631	1615.82129	-669.12659	778.67255	1655.56909	-706.31592	773.83362	1646.71912	-683.84576	702.09137	1275.87646	-661.74023	924.87921	1514.03711	-652.50415	923.60614	1334.54370	-821.54553	947.42480	1482.63123	-815.29315	949.75079	1243.63831	-754.08807	630.14685	1281.10046	-786.45428	454.54889	1279.13367	-884.48401	280.77020	1320.74121	-955.80188	80.49051	1356.60547	-1003.74353	52.34806	1342.07703	-811.03296	33.82043	1563.80188	-644.91718	632.72858	1524.84766	-564.30371	471.64346	1534.58411	-538.66174	288.97821	1495.45422	-475.63058	79.13059	1442.03418	-507.29730	37.82647	1474.97693	-329.70712	73.15730	1393.72070	-708.63959	1659.65955																		 
78	0.770	1347.22961	-607.78455	1609.00757	1480.48071	-616.50250	1609.17603	1342.95911	-730.70514	1550.99072	1474.20972	-734.05988	1551.57080	1392.43103	-753.83429	1402.04956	1394.59863	-806.78314	1093.43738	1400.36865	-635.67633	1319.96094	1393.21350	-600.69812	1152.68384	1481.31873	-819.26550	1229.13245	1244.79834	-664.21033	1361.41968	1166.73828	-630.07935	1176.83154	1153.57996	-582.61810	1065.30786	1168.94971	-492.72849	975.95001	1215.86401	-412.79224	897.59033	1164.17175	-427.04523	882.83594	1183.14563	-361.43878	836.34320	1557.18188	-691.11676	1343.33130	1629.28894	-709.95990	1122.65356	1644.55054	-703.14679	1010.09583	1648.17371	-691.64221	873.30219	1616.09155	-660.10632	777.58228	1656.02100	-697.04718	772.80731	1646.87695	-675.10834	701.05450	1276.26611	-651.75183	924.03900	1514.49902	-641.81134	923.12537	1335.76318	-811.84320	946.46790	1483.60522	-804.72614	949.14380	1243.79419	-745.69781	629.66937	1280.75647	-778.80139	453.93036	1278.84863	-879.65601	281.54938	1319.91577	-954.83447	82.91418	1355.92896	-1003.11731	55.26936	1342.06909	-810.84985	33.72546	1563.80078	-634.31000	632.56409	1524.99573	-554.49719	470.99094	1534.65076	-530.50970	287.80780	1495.23682	-469.54941	77.33881	1442.17432	-502.26791	37.21184	1474.29089	-323.89841	69.86304	1394.56140	-699.00433	1659.20593																		 
79	0.780	1348.15820	-598.19354	1608.45288	1481.18201	-606.72949	1608.85144	1343.78137	-720.92889	1550.43689	1475.00208	-724.26282	1551.10034	1393.58960	-743.80597	1401.52112	1395.52783	-796.58154	1092.84106	1401.16992	-625.63562	1319.47095	1393.90259	-590.55682	1152.21484	1482.57214	-809.01746	1228.53174	1245.65540	-654.62451	1360.93213	1167.93262	-621.13049	1176.03162	1155.00830	-574.12506	1064.29395	1170.41577	-484.61459	974.45288	1217.45813	-405.15390	895.71130	1165.76343	-419.45047	881.07355	1184.93115	-354.05573	834.25531	1558.18286	-680.59711	1342.70190	1630.09924	-699.57916	1121.92688	1645.27710	-693.03192	1009.38696	1648.69800	-682.00702	872.50238	1616.33130	-650.79492	776.63953	1656.46631	-687.72852	772.02979	1647.16687	-666.24017	700.34497	1276.62427	-641.64703	923.23560	1515.23352	-630.70166	922.97968	1337.00647	-801.58771	945.60266	1484.65308	-794.01642	948.79449	1244.07349	-736.74725	629.15790	1280.42346	-770.69391	453.42749	1278.52136	-874.53192	282.50961	1319.66748	-953.14026	84.93083	1355.30347	-1002.33118	58.63862	1341.97693	-810.66113	33.61349	1563.89819	-623.61517	632.48627	1525.15100	-544.82056	470.40649	1534.45984	-523.48755	286.31799	1494.59497	-465.74847	75.18928	1441.50793	-499.91446	36.72781	1473.81921	-320.59146	64.09360	1395.70667	-689.57416	1659.08655																		 
80	0.790	1348.85400	-588.49561	1608.27466	1481.97351	-596.91962	1608.78931	1344.65515	-711.06116	1550.04761	1475.98352	-714.44202	1550.90002	1394.89087	-733.97083	1401.28967	1396.49268	-785.95728	1092.34521	1402.12244	-615.39203	1319.25732	1394.50635	-580.26483	1152.04028	1483.89612	-798.64215	1228.07190	1246.57251	-644.93066	1360.68201	1169.15332	-612.42908	1175.28796	1156.49573	-565.88055	1063.33630	1171.95129	-476.84103	973.02081	1218.90942	-398.33859	893.32623	1167.22571	-412.31052	879.09943	1186.57397	-347.29974	831.74664	1559.25696	-670.01239	1342.27112	1631.00073	-689.09796	1121.43445	1645.97290	-682.67371	1008.79321	1649.29480	-672.15784	871.88629	1616.77368	-641.69037	776.01532	1656.98242	-678.34796	771.48871	1647.48523	-656.96704	699.55060	1277.13074	-631.23077	922.56860	1515.98486	-619.56738	923.07166	1338.27075	-790.79578	944.73877	1485.85718	-782.92755	948.74542	1244.48157	-727.66827	628.91699	1280.10327	-762.24994	453.04816	1278.26001	-869.09705	283.73755	1319.13489	-951.80798	87.90411	1354.80481	-1001.30499	62.64878	1341.97070	-810.43640	33.45615	1564.10352	-612.79138	632.79980	1525.43274	-535.56677	469.85834	1533.74890	-517.32184	284.95468	1493.63330	-463.36075	73.42102	1439.47327	-499.04840	37.16597	1473.65503	-318.63406	54.53482	1396.05420	-679.69391	1658.48108																		 
